Coordinates
version=1
nRows=9
nColumns=24
inDegrees=yes

Units are S.I. units (second, meters, Newtons, ...)
Angles are in degrees.

endheader
time	pelvis_tilt	pelvis_list	pelvis_rotation	pelvis_tx	pelvis_ty	pelvis_tz	hip_flexion_r	hip_adduction_r	hip_rotation_r	knee_angle_r	ankle_angle_r	subtalar_angle_r	mtp_angle_r	hip_flexion_l	hip_adduction_l	hip_rotation_l	knee_angle_l	ankle_angle_l	subtalar_angle_l	mtp_angle_l	lumbar_extension	lumbar_bending	lumbar_rotation
      1.26750000	     -1.76432274	     -2.52317783	     -8.05007250	     -0.00464139	      0.96174916	      0.34336543	    -17.24633747	      3.41809583	     -0.79638614	     -8.79034431	     10.10909564	      8.54659238	     13.53623679	     27.12457131	     -3.22776605	     -7.11931506	      0.26440063	      6.77058904	     -2.13991449	      0.39470220	     -0.07157782	      6.73312385	     11.13740842
      1.27166667	     -1.78676374	     -2.40463723	     -8.10548773	      0.00140397	      0.96101321	      0.34303491	    -17.40978201	      3.17506388	     -0.96110531	     -9.08141448	     10.00133087	      8.84459200	     13.99564542	     27.14064277	     -3.09185801	     -7.09834598	      0.08752161	      6.62919935	     -2.53458271	      0.44789971	      0.01463677	      6.60189803	     11.21313949
      1.27583333	     -1.82850003	     -2.30944059	     -8.17824909	      0.00746113	      0.96031987	      0.34276866	    -17.57456507	      2.97134532	     -0.95506604	     -9.32948295	      9.77016167	      8.81223495	     14.05538995	     27.21363697	     -3.00190686	     -7.18899909	     -0.22879086	      6.52730804	     -2.74112275	      0.45369383	      0.13049680	      6.49290557	     11.24573446
      1.28000000	     -1.90711717	     -2.19518953	     -8.22636231	      0.01355817	      0.95959994	      0.34243863	    -17.68244981	      2.75394432	     -1.02522122	     -9.59971918	      9.51510330	      8.94114959	     14.30607295	     27.31473944	     -2.87756522	     -7.11434975	     -0.56245948	      6.26789970	     -3.25788946	      0.49026862	      0.29534794	      6.37825118	     11.37332670
      1.28416667	     -1.95722130	     -2.05651707	     -8.27535981	      0.01971361	      0.95895124	      0.34211033	    -17.80971014	      2.50627584	     -1.10035546	     -9.89120324	      9.27414064	      9.01043629	     14.65197545	     27.39366947	     -2.72750892	     -7.07037465	     -0.96286213	      6.02061718	     -3.76788578	      0.54996038	      0.43614347	      6.21735314	     11.41462045
      1.28833333	     -2.01325734	     -1.90514837	     -8.33031207	      0.02588086	      0.95832941	      0.34176324	    -17.90966279	      2.24297776	     -1.15904322	    -10.21818969	      9.04936481	      9.06144260	     15.33037466	     27.48246267	     -2.56415387	     -6.97521650	     -1.41380587	      5.77871579	     -4.39034400	      0.68519484	      0.56228504	      6.05808526	     11.46781326
      1.29250000	     -2.08952906	     -1.72359505	     -8.34570656	      0.03214860	      0.95771952	      0.34138516	    -17.99972782	      1.96650461	     -1.25052193	    -10.51842780	      8.80076832	      9.00769351	     16.52241349	     27.60137064	     -2.35688103	     -6.88017042	     -1.90589377	      5.41078579	     -5.00212230	      0.94610520	      0.76544246	      5.84467320	     11.51206720
      1.29666667	     -2.14188340	     -1.56604791	     -8.39616625	      0.03840531	      0.95720540	      0.34107736	    -18.10671979	      1.70932297	     -1.24573905	    -10.82500260	      8.40659881	      8.89996979	     16.59781714	     27.74401917	     -2.20321157	     -7.00166533	     -2.54813900	      5.18038243	     -5.25371698	      0.96019918	      0.91431920	      5.66050184	     11.51920313
      1.30083333	     -2.27685756	     -1.40829090	     -8.40639310	      0.04468394	      0.95661294	      0.34067787	    -18.12420065	      1.47741194	     -1.24907292	    -11.12744907	      8.00101016	      8.83619717	     16.86222997	     27.95718555	     -2.02487913	     -6.88580383	     -3.16563217	      4.76802001	     -5.88112335	      1.01920470	      1.17283938	      5.51101877	     11.57558241
